<svg width="400" height="200" viewBox="0 0 400 200" fill="none" xmlns="http://www.w3.org/2000/svg">
<path d="M27.3535 62.2715L40.8789 120.621L57.0898 62.2715H67.6367L83.8477 120.621L97.373 62.2715H108.018L89.1699 134H78.9648L62.4121 74.5273L45.7617 134H35.5566L16.8066 62.2715H27.3535Z" fill="black"/>
<path d="M107.379 81.9492H116.314V134H107.379V81.9492ZM107.379 62.2715H116.314V72.2324H107.379V62.2715Z" fill="black"/>
<path d="M121.389 62.2715H130.178V134H121.389V62.2715Z" fill="black"/>
<path d="M135.154 62.2715H143.943V134H135.154V62.2715Z" fill="black"/>
<path d="M175.527 110.855C175.755 114.924 176.715 118.229 178.408 120.768C181.631 125.52 187.311 127.896 195.449 127.896C199.095 127.896 202.415 127.376 205.41 126.334C211.204 124.316 214.102 120.702 214.102 115.494C214.102 111.588 212.881 108.805 210.439 107.145C207.965 105.517 204.092 104.101 198.818 102.896L189.102 100.699C182.754 99.2669 178.262 97.6882 175.625 95.9629C171.068 92.9681 168.789 88.4922 168.789 82.5352C168.789 76.0898 171.019 70.8001 175.479 66.666C179.938 62.5319 186.253 60.4648 194.424 60.4648C201.943 60.4648 208.324 62.2878 213.564 65.9336C218.838 69.5469 221.475 75.3411 221.475 83.3164H212.344C211.855 79.4753 210.814 76.5293 209.219 74.4785C206.257 70.735 201.227 68.8633 194.131 68.8633C188.402 68.8633 184.284 70.0677 181.777 72.4766C179.271 74.8854 178.018 77.6849 178.018 80.875C178.018 84.3906 179.482 86.9622 182.412 88.5898C184.333 89.6315 188.678 90.9336 195.449 92.4961L205.508 94.791C210.358 95.8978 214.102 97.4115 216.738 99.332C221.296 102.685 223.574 107.551 223.574 113.932C223.574 121.874 220.677 127.555 214.883 130.973C209.121 134.391 202.415 136.1 194.766 136.1C185.846 136.1 178.864 133.821 173.818 129.264C168.773 124.739 166.299 118.603 166.396 110.855H175.527Z" fill="black"/>
<path d="M226.451 62.2715H235.24V134H226.451V62.2715Z" fill="black"/>
<path d="M260.725 128.336C266.551 128.336 270.539 126.139 272.688 121.744C274.868 117.317 275.959 112.402 275.959 106.998C275.959 102.115 275.178 98.1439 273.615 95.084C271.141 90.2663 266.877 87.8574 260.822 87.8574C255.451 87.8574 251.545 89.9082 249.104 94.0098C246.662 98.1113 245.441 103.059 245.441 108.854C245.441 114.42 246.662 119.059 249.104 122.77C251.545 126.48 255.419 128.336 260.725 128.336ZM261.066 80.1914C267.805 80.1914 273.501 82.4375 278.156 86.9297C282.811 91.4219 285.139 98.0299 285.139 106.754C285.139 115.185 283.088 122.151 278.986 127.652C274.885 133.154 268.521 135.904 259.895 135.904C252.701 135.904 246.988 133.479 242.756 128.629C238.524 123.746 236.408 117.203 236.408 109C236.408 100.211 238.638 93.2122 243.098 88.0039C247.557 82.7956 253.547 80.1914 261.066 80.1914Z" fill="black"/>
<path d="M293.875 120.084C293.875 122.623 294.803 124.625 296.658 126.09C298.514 127.555 300.711 128.287 303.25 128.287C306.342 128.287 309.337 127.571 312.234 126.139C317.117 123.762 319.559 119.872 319.559 114.469V107.389C318.484 108.072 317.101 108.642 315.408 109.098C313.715 109.553 312.055 109.879 310.428 110.074L305.105 110.758C301.915 111.181 299.523 111.848 297.928 112.76C295.226 114.29 293.875 116.731 293.875 120.084ZM315.164 102.311C317.182 102.05 318.533 101.204 319.217 99.7715C319.607 98.9902 319.803 97.8672 319.803 96.4023C319.803 93.4076 318.729 91.2428 316.58 89.9082C314.464 88.541 311.421 87.8574 307.449 87.8574C302.859 87.8574 299.604 89.0944 297.684 91.5684C296.609 92.9355 295.91 94.9701 295.584 97.6719H287.381C287.544 91.2266 289.627 86.7507 293.631 84.2441C297.667 81.7051 302.339 80.4355 307.645 80.4355C313.797 80.4355 318.794 81.6074 322.635 83.9512C326.443 86.2949 328.348 89.9408 328.348 94.8887V125.016C328.348 125.927 328.527 126.66 328.885 127.213C329.275 127.766 330.073 128.043 331.277 128.043C331.668 128.043 332.107 128.027 332.596 127.994C333.084 127.929 333.605 127.848 334.158 127.75V134.244C332.791 134.635 331.749 134.879 331.033 134.977C330.317 135.074 329.34 135.123 328.104 135.123C325.076 135.123 322.879 134.049 321.512 131.9C320.796 130.761 320.291 129.15 319.998 127.066C318.208 129.41 315.636 131.445 312.283 133.17C308.93 134.895 305.236 135.758 301.199 135.758C296.349 135.758 292.378 134.293 289.285 131.363C286.225 128.401 284.695 124.706 284.695 120.279C284.695 115.429 286.209 111.669 289.236 109C292.264 106.331 296.235 104.687 301.15 104.068L315.164 102.311Z" fill="black"/>
<path d="M334.301 81.7051H342.65V89.127C345.124 86.0671 347.745 83.8698 350.512 82.5352C353.279 81.2005 356.355 80.5332 359.74 80.5332C367.162 80.5332 372.175 83.1211 374.779 88.2969C376.212 91.1289 376.928 95.1816 376.928 100.455V134H367.992V101.041C367.992 97.8509 367.52 95.2793 366.576 93.3262C365.014 90.071 362.182 88.4434 358.08 88.4434C355.997 88.4434 354.288 88.6549 352.953 89.0781C350.544 89.7943 348.428 91.2266 346.605 93.375C345.141 95.1003 344.18 96.8906 343.725 98.7461C343.301 100.569 343.09 103.189 343.09 106.607V134H334.301V81.7051Z" fill="black"/>
</svg>
